<svg xmlns:xlink="http://www.w3.org/1999/xlink" xmlns="http://www.w3.org/2000/svg" viewBox="0 0 360 360"><defs><linearGradient id="f"><stop offset="0" stop-color="#fff"/><stop offset="1" stop-color="#fff" stop-opacity="0"/></linearGradient><linearGradient id="e"><stop offset="0" stop-color="#ffd1e8" stop-opacity="0"/><stop offset="1" stop-color="#ff84c2"/></linearGradient><linearGradient id="d"><stop offset="0" stop-color="#ff75a4"/><stop offset="1" stop-color="#ff1b69"/></linearGradient><linearGradient id="c"><stop offset="0" stop-color="#f619ff"/><stop offset="1" stop-color="#fedbff"/></linearGradient><linearGradient id="b"><stop offset="0" stop-color="#ffd1e8"/><stop offset="1" stop-color="#ffa1d0"/></linearGradient><linearGradient id="a"><stop offset="0" stop-color="#fff"/><stop offset="1" stop-color="#fff" stop-opacity="0"/></linearGradient><linearGradient xlink:href="#a" id="h" x1="313.71" y1="229.42" x2="325.24" y2="299.6" gradientUnits="userSpaceOnUse"/><linearGradient xlink:href="#a" id="m" x1="447.71" y1="377.06" x2="432.06" y2="402.82" gradientUnits="userSpaceOnUse"/><linearGradient xlink:href="#b" id="k" x1="364.26" y1="356.28" x2="361.98" y2="336.84" gradientUnits="userSpaceOnUse"/><linearGradient xlink:href="#b" id="l" x1="354.41" y1="439.16" x2="381.76" y2="436.38" gradientUnits="userSpaceOnUse"/><linearGradient xlink:href="#c" id="i" x1="318.39" y1="326.56" x2="318.13" y2="314.19" gradientUnits="userSpaceOnUse"/><linearGradient xlink:href="#d" id="j" x1="322.73" y1="349.12" x2="322.3" y2="341.93" gradientUnits="userSpaceOnUse"/><linearGradient xlink:href="#e" id="n" x1="354.14" y1="275.77" x2="314.39" y2="264.88" gradientUnits="userSpaceOnUse"/><linearGradient xlink:href="#f" id="o" x1="296.22" y1="223.82" x2="312.84" y2="221.04" gradientUnits="userSpaceOnUse"/><linearGradient xlink:href="#f" id="p" gradientUnits="userSpaceOnUse" x1="318.34" y1="308.1" x2="320.23" y2="329.53"/><filter id="g" x="-.06" width="1.13" y="-.32" height="1.64" color-interpolation-filters="sRGB"><feGaussianBlur stdDeviation="7.03"/></filter></defs><g transform="translate(-183.93 -145.69)"><ellipse cx="375.36" cy="475.4" rx="132.86" ry="26.25" transform="translate(-11.43 -14.29)" fill="#ff49a4" fill-opacity=".71" filter="url(#g)"/><path d="M297.19 147.16a.87.87 0 00-.31.09c-3.89 3.26-2.4 9.84-3.16 14.47a97.56 97.56 0 001 15.34 17.32 17.32 0 00-2.16 8.4c-.4 4.2.3 8.67 2.88 12.04a15.58 15.58 0 00-2.44 9.06c-.2 3.92.95 7.73 3.06 11-1 1.42-1.35 3.02-1.69 4.56-13.96 2.68-28.1 8.16-37.53 18.88-11.29-2.56-20.2-10.7-26.8-19.81-1.43 17.82 1.2 39.15 16.87 50.15 4.44 1.6.56 7.3 1.59 10.85-.27 7.52 1.04 15.32 3.1 22.22-6.04 5.04-8.04 14.4-5.94 21.75 1.85 1.54 3.99-2.09 3.84-1.88.79 8.87 7.7 15.15 14.78 19.66-.97-3.44-2.37-6.85-2.44-10.47 6.55 7.94 17.53 12.71 27.82 10.47-2.95-3.75 3.31 1.02 5.06 1.06 1.24.5 2.52.92 3.84 1.25-4.18 6.3-5.11 14.6-4.25 21.94.82 4.84 3.08.1 2.38 5.1.43 10.91 11.87 17.2 14.06 27.37.01 9.38-.82 19.23-2.16 28.21-10.49 1.34-24.16 4.09-27.4 15.85-2.77 9.23 4.85 18.07 13.53 19.72 7.18 1.36 13 1.35 16.78.81a30.69 30.69 0 0022.63-16.19c5.8 8.19 13.67 7.22 19.71 8.38 5.98 1.19 11.83-1.7 17.66-3.07.87 6.02 5.43 12.75 14.1 13.37 8.68.6 15.34 1.93 20.09-2.46-1.05 4.38.5 8.77 1.5 12.78 1.48-2.58 2.57-4.07 4.28-1.31 8.91 5.55 20.3 2.9 30.15 2.25 20.29-2.92 42.85-8 56.22-24.78 8.35-10.37 7.85-25.72.38-36.4-10-15.82-26.26-26.04-41.22-36.63-10.33-12.74-22.22-25.05-38.53-29.56-10.88-3.43-22.9-4.22-32.06-11.85a50.7 50.7 0 01-4.07-2.75 27.32 27.32 0 00-5.5-6.69l.32-.28c4.16-2.68 6.88-7.63 6.3-12.62 2.91 2.03 4.9 4.88 7.2 7.6.96-8.29-1.04-18-8.07-22.73 3.39-10.62 4.28-22.33 1.79-33.28 16.55-12.96 21.32-36.24 16.15-56l-2.62 2.47c-9.12 8.51-19.67 15.9-31.57 19.72-10.54-8.68-23.22-15.32-37.25-15.16-3.84-.16-7.69-.13-11.53-.03 1.28-6.63-.94-13.32-4.72-18.78l.25-.34c0-5.5.2-12.56-4.3-16.38.17-.36.31-.72.46-1.1.27-5.8-1.66-11.31-4.44-16.3a7.4 7.4 0 00-.03-4.07c-1-5.57-2.06-12.08-6.6-15.9-.31.06-.67-.04-1 0zm76.15 178.97c.12.57.16 1.2.2 1.8-.26-.14-.5-.3-.76-.43l-.28-.06c.3-.44.59-.87.84-1.31zM338.7 413.8c3.71 1.96 7.73 3.21 11.65 4.63l1.04 2c1.88 3.9 5.03 7.98 6.87 11.28-6.97 0-15.48.46-20.94 5.03 1.09-7.6 1.1-15.71 1.38-22.94zm113.5 13.03c5.14 1.97 12.84 5.73 12.84 12-5.91 5.39-16.61 3.08-20.12 2.45 3.53-2.72 4.83-9.29 4.37-13.04.97-.46 1.93-.98 2.9-1.4z" fill="#960067"/><path d="M399.25 216.97c-17.93 16.92-33.31 20.44-33.31 20.44-15.59-11.52-21.74-16.15-47.78-15.38 4.3 4.54 4.75 11.95 3.56 17.88l-.28.3c4.56 4.3 5.3 11.25 5.5 17.26 1.8 10.68-8.77 20.13-19.16 17.94-6.22-.23-13.52-5.53-11.1-12.44l.73-.9c-3.97-5.82-3.68-13.63-1.54-20.1.31-.44.62-.86.94-1.28-4.16-4.15-3.88-10.62-2.84-16.4-27.54 5.28-36.13 18.93-36.13 18.93s-14.38-1.76-26-16.66c-1.51 37.13 19.44 44.94 19.44 44.94-2.86 22.5 3.03 33.6 3.03 33.6-8.33 4.03-7.6 18.17-7.34 19.18.25 1.01 2.54-8.56 4.81-8.31-3.03 15.9 8.84 22.72 8.84 22.72s-2.02-7.32.25-9.85c10.1 15.4 25.5 13.63 25.5 13.63l-4.53-7.31s8.56 8.07 21.2 9.84c12.62 1.77 18.43-7.81 18.43-7.81s6.82 7.8 21.47 5.53c14.64-2.27 31.17-15.36 29.56-21.97 3.21 2.5 3.16 7.9 3.16 7.9s9-5 4.71-15.18c4.83 1.78 8.29 6.03 8.29 6.03s.69-11.8-8.6-15.9c6.97-19.83 2.03-35.38 2.03-35.38s23.98-15.64 17.16-51.25zm-51.85 86c6.14.1 9.89 3.05 9.89 3.05l6.2-2.91-5.86 8.39s-3.08-6.29-10.23-5.29-11 3.25-11 3.25 4.86-6.6 11-6.5zm-56.82 4.2c5.56-.06 10.33 4.85 10.33 4.85s-4-1.63-11.13-1.72c-7.12-.1-9.57 6.1-9.57 6.1l-6.55-7.14 6.38 2.03s3.38-3.2 9.4-4.03a9.3 9.3 0 011.14-.09zm28.14 4.36c5.9-.2 13.91 1.01 16.12 7.44-4.48 4.54-7.91 10.92-13.9 13.53-6.45-1.5-10.48-8.17-15.56-12.1 1.9-5.55 7.72-8.78 13.34-8.87z" fill="#ffd1e8"/><path d="M396.31 224.84l-.78.66-.56.47c-8.84 7.1-18.87 12.97-29.88 15.84-10.67-9.05-23.94-16.23-38.5-15.75l-5.78.16c1.76 4.22 1.78 9.34.9 13.69l-.27.3c4.56 4.3 5.3 11.25 5.5 17.26 1.8 10.68-8.77 20.13-19.16 17.94-6.22-.23-13.52-5.53-11.1-12.44l.73-.9c-3.97-5.82-3.68-13.63-1.54-20.1.31-.44.62-.86.94-1.28-3.08-3.07-3.73-7.42-3.44-11.81-1.34.18-2.56.34-4.06.56-11.4 1.67-23 8.03-29.53 18.1-8.87-.96-17.15-5.13-23.78-10.85.94 12.83 6.43 27.67 19.63 32.22-1.66 12.84-2.34 26.69 4.18 38.37 54.66-3.2 99.84-5.33 115.88-3.25 4.47-11.94 5.61-25.31 1.81-37.53 13.78-8.58 20.3-25.82 18.81-41.66z" fill="url(#h)"/><path d="M307.78 319.94s2.59-6.76 12.82-6.44c10.22.31 11.93 5.11 11.93 5.11s-9.79 11.87-11.87 11.94c-2.08.06-12.88-10.61-12.88-10.61z" fill="url(#i)"/><path d="M297.5 149.16c-.9.1-2.92 12.11-1.03 25.53 1.43-1.43 4.42-5 6.65-7.5-.33-10.67-4.85-18.12-5.62-18.03z" fill="#0062ff"/><path d="M303.66 169.31l-7.2 8.06c-2.88 7.47-2.49 15.24.32 18.44l10.44-11.72a26.74 26.74 0 00-3.56-14.78z" fill="#0efff0"/><path d="M307.72 186.25c-3.65 4.07-7.1 7.92-10.88 12.19-3.27 7.92-1.62 14.15.41 17.19l13.84-14.79c.21-6.3-.57-12.57-3.37-14.59z" fill="#62ff9b"/><path d="M311.66 203.28c-4.49 4.75-9.59 10.17-14.32 15.25-2.83 9.2-2.64 17.83.6 20.47l17.56-18.72c.98-6.15.24-10.95-3.84-17z" fill="#f0ff0e"/><path d="M316.03 222.72a2629.2 2629.2 0 00-18 19.16c-2.63 7.36-2.02 14.46.63 18.28l21.09-20.63c1.9-8.6-1.47-15.44-3.72-16.81z" fill="#ff9b00"/><path d="M320.25 241.88a2541.6 2541.6 0 00-21.5 21.12c-3.12 9.82 10.46 10.84 12.63 10.66 11.61-.99 13.37-10.85 13.37-10.85s1.56-15.67-4.5-20.94z" fill="#f00000"/><path d="M321.28 340.66a18.76 18.76 0 01-9.4 5.68c.1 4.14 1.7 8.76 8.84 8.97 8.69.26 13.3-5.94 15.34-10.25-4.5-.24-8.9-1.47-12.87-4l-1.22 6.56z" fill="url(#j)"/><path d="M371.25 329.06a38.44 38.44 0 01-6.19 5.88 52.7 52.7 0 01-11.06 6.5c1.21.47 2.46 1.03 3.72 1.65 6.31 3.16 14.9 17.07 14.9 17.07s-11.63-13.88-20.09-16.79c-.67-.22-1.38-.38-2.1-.53a39.6 39.6 0 01-12.09 2.29c-3.14 6.95-9.67 12.68-17.62 12.18-.5.04-.97.04-1.44 0l-.06.06c-9.1 9.35-2.9 23.13-2.9 23.13s1-11.5 6.18-12.13c0 0-5.68 4.55-3.53 12.88 2.46 9.57 8.2 6.82 9.34 6.56-1.64-2.65-3.53-10.62 2.9-17.06-1 2.27-3.02 7.6-2.9 9.88.13 2.27.12 11.34 10.35 4.9 10.22-6.44 11.35-22.59 10.09-29.03 5.68 11.49-2.4 24.25-2.4 24.25s7.95 8.31 18.56 8.31c10.6 0 18.43-10.1 21.59-18.69 3.1-8.4-1.19-29.86-11.1-38.8-1.26.79-1.58-.02-1.71-1.38-.78-.5-1.6-.86-2.44-1.13z" fill="url(#k)"/><path d="M384.31 340.78c2.23 4.88 3.6 10.27 4.56 15.28 2.66 11.04-2 22.49-10.46 29.66-9.46 9.02-24.64 5.4-33.04-3.16-3.44 2.83-8.75 8.47-14.62 6.97-3.65 1-10.5.72-13.24-3.13-4.14-5.83-8.78-19.48-.64-29.59-4.12-1.4-6.97-5.5-7.15-9.97-2.97.5-6.08.43-9.1-.12-1.4 1.7-2.6 3.91-3.25 6.87-2.4 10.99-1.15 14-1.15 14l4.69-5.53s-3.68 7.18-1.66 14.5c2.02 7.33 12.65 17.2 13.4 22.75.76 5.56-1.77 29.28-1.77 29.28l7.3 1.5s-21.19.53-29.52 7.1c-8.34 6.56-6.52 15.36-3.04 19.56 3.49 4.2 10.91 6.16 10.91 6.16s-7.6-3.5-7.87-11.44c-.27-7.95 3.75-11.69 3.75-11.69s-3.72 11.38-.97 16.6c3.71 7.05 14.28 6.62 14.28 6.62s-4.3-3.48-3.94-11.25c.36-7.77 5.28-11.19 5.28-11.19s-4.84 10.3-2.87 14.85c1.96 4.55 3.75 8.1 8.12 7.84 4.38-.27 18.6-6.78 21.63-19.28 3.03-12.5 2.6-30.63 2.6-30.63l-17.17-11.96s22.06 12.78 31.97 15.28 12.24 9.28 23.94 13.03c11.7 3.75 17.85 1.87 17.85 1.87s-2.42-1.15-2.6-21.78c-.18-20.62 7.4-27.4 7.4-27.4s-6.6 12.5-5.52 30c1.07 17.5 1.6 17.3 3.65 20.43 2.06 3.13 7.35 5.53 7.35 5.53l13.56 2.32s-12.7-1.07-24.66.09c-11.96 1.16-18.9 2.58-18.9 11.69 0 9.1 7.75 11.97 7.75 11.97s-3.47-6.69-1.5-12.22c1.96-5.54 8.46-6.97 8.46-6.97s-7.58 4.82-7.3 10c.26 5.18.8 7.5 2.5 9.37 1.69 1.88 5.71.82 5.71.82s-1.9-7.77.25-11.79c2.14-4.01 8.75-6.25 8.75-6.25s-8.04 4.26-8.31 11.32c-.27 7.05 1.45 6.61 4.31 7.06 2.86.45 7.83 1.08 11.94-3.47a12 12 0 012.03-1.6 8.11 8.11 0 00-2.56.57c5.07-6.68 11.58-12.63 19.78-15.03 5.26-.92 4.79-1.73-.53-3.5 5.44-1.13 11.14-2.02 16.72-1.6 3.37-2.57 5.65-5 5.9-7.06 1.07-8.57-3.65-8.56-3.65-8.56l-14.1 3.78c5.43-1.58 16.13-5.3 17.66-10.4 2.05-6.88-2.56-26.88-2.56-26.88s4.17 8.05 5.15 17.88c.95 9.5-3.65 14.53-3.65 14.53l2.25 2.06 3.62-1.78c4.27 1.39 10.5 4.14 13.9 9.72 5.18 8.46-6.95 9.84-14.02 10.21-7.07.38-5.26-2.73-20.44-1.12 0 0 4.5 1.14 5.03 3.28 0 0-14.52-1.82-26.13 11.75 0 0 2.55-.41 4.7.66-10.36 3.93-6.98 14.47-6.98 14.47s1.34-1.8 2.41-2.7c.36 3.58 2.92 7.39 17.06 7.13 14.14-.25 65.39-5.29 73.6-35.09 7.04-25.59-28.4-48.93-44.82-59.5-8.37-10.2-17.76-20.16-25.37-24.25-18.13-9.73-28.12-7.78-37.4-12.78a95.25 95.25 0 01-9.26-5.69z" fill="#ffd1e8"/><path d="M353.16 419.5c3.62 6.96 9.37 14.4 9.37 14.4s-12.4-1.02-19.22 1.76c-3.19 1.3-5.2 2.55-6.47 3.9-.2 2.43-.76 4.79-1.62 7.03 1.36 3.4 6.34 6.63 6.34 6.63s-2.66-2.9-2.28-7.31c.38-4.42 4.44-6.47 4.44-6.47s-3.54 4.43-3.03 7.72c.5 3.28 1.63 5.68 4.03 6.43 2.4.76 3.9.5 3.9.5s-1.39-4.41.25-9.59c1.65-5.18 7.6-4.78 7.6-4.78s-6.82 2.37-6.56 8.94c.25 6.56 3.25 6.58 5.78 7.09 1.73.35 10.3-1.88 15.65-3.34-.01-2.4.59-4.81 1.94-7 6.13-7.37 17.04-6.04 25.66-7.1-.9-.99-3.9-2.89-4.9-4.9-10.57 1.92-21.87-1.4-30.5-7.57-3.04-2.97-6.62-4.84-10.38-6.34z" fill="url(#l)"/><path d="M386.44 346.28a81.7 81.7 0 012.44 9.78c2.65 11.04-2.01 22.49-10.47 29.66-7.1 6.77-17.43 6.43-25.7 2.22-1.32 2.96-2.62 3.93-7.3 0-6.6 6.28-16.71 7.48-25.16 5.03-1.3 2.63-2.76 3.04-5.13 3.94 12.29 1.62 21.47 11.14 33.25 14.46a54.86 54.86 0 0121.25 11.38 37.29 37.29 0 0018.29 5.16c-2.18-15.78-3.32-33.9 6.37-47.47 3.26-3.19 7.4-5.23 11.1-7.88-5.6 14.45-11.15 29.71-8.6 45.47-.26 6.7 1.4 15.58 9.38 16.75 5.82 1.13 12.5 1.18 17.18 5.1 5.37-3.4 12.5-.96 18.26-2.37 2.14-1.33 2.88-5.66 1.46-7.8-6.78 2.01-14.18 5.2-21.1 1.63 4.84-8.04 16.25-6.52 21.42-13.84 1.6-11.88-4.19-23.6-2.38-35.63 10.4 9.47 15 24.82 11.75 38.47-.09 1.6 4.28.91 5.69 2.47 6.76 3.5 15.36 10.72 11.75 19.25-9.22 6.42.4 13.97 5.22 21.85 10.96-5.13 22.58-14.06 22.56-27.47-.04-14.48-12.03-25.31-22.06-34.03-9.83-8.63-22.38-14.05-30-25-9.94-11.78-23.42-20.05-38.72-22.6-3.65-.68-13.77-5.36-20.75-8.53z" fill="url(#m)"/><path d="M327.13 259.53c.17 6.9-4.67 12.94-10.94 15.22 11.57.85 27.6 2.9 36.31 7.78a80.99 80.99 0 0123.4 20.19l2.04-5.88a60.15 60.15 0 001.72-18.46c-3.1-3.37-8.68-8.1-17.88-11.72-10.36-4.08-25.37-6.16-34.65-7.13zm-24.57 14.56l-.06.07h.19l-.13-.07z" fill="url(#n)"/><path d="M298.28 154.06l-.12 1-.07.38c-.5 4.81-.55 9.9-.09 14.6 5.67-3.88 1.8-10.89.28-15.98zm4.28 19.56c-.75.06-1.66.92-2.72 2.97l-1.65 1.88c-1.57 4.39-2.38 9.25-1.03 13.9 3.01-4.47 10.08-7.77 7.71-14.03-.25-2.67-1.06-4.81-2.3-4.72zm5.1 15.72l-3.82 4.28c-5.66 4.26-8.39 11.74-6.06 18.5 3.36-4.68 9.66-8.2 11.35-13.56-.06-3.11-.26-6.32-1.47-9.22zm3.68 17.22l-5.28 5.6c-4.34 4.12-8.83 8.48-8.5 14.9-.29 2.92-.42 6 .6 8.78 5.06-5.66 10.88-11.1 15.5-16.9.67-4.24-.12-8.7-2.32-12.38zm4.7 19.1l-7.45 7.87c-4.5 5.03-11.03 9.42-10.25 17 .06 2.29-.03 9.1 3 4.19 5.34-5.82 12.24-10.82 16.72-17.1.57-4.1.18-8.46-2.03-11.96zm4.12 19.12l-3.22 3.13c-5.37 5.78-12.08 10.82-16.6 17-.61 5.82 7.62 7.05 11.88 6.62 7.57-.5 12.28-8.36 10.65-15.47-.21-3.88-.68-7.86-2.71-11.28z" fill="url(#o)"/><path d="M358 314.75c-1.82.01-3.9.1-6.22.28-5.6.44-11.67 2.04-17.06 3.66.04.1.09.18.12.28-4.48 4.54-7.91 10.92-13.9 13.53-6.36-1.48-10.36-7.96-15.35-11.9-1.95-.9-6.52-2.28-16.12-1.91-13.93.53-16.59 4.58-16.53 7.5.07 3.93 6.78 6.62 6.78 6.62s19.1 9.11 29.37 8.22c10.27-.9 11.88-6.34 11.88-6.34s14.2 5.6 29.37 2.75c15.18-2.86 21.28-15.87 19.94-18.81-1.09-2.4-4.41-3.92-12.28-3.88z" fill="url(#p)"/></g></svg>